<svg width="25" height="25" viewBox="0 0 25 25" fill="none" xmlns="http://www.w3.org/2000/svg">
<path d="M8.65373 11.5385C10.2442 11.5385 11.5385 10.2445 11.5385 8.65401C11.5385 7.06328 10.2442 5.76929 8.65373 5.76929C7.06322 5.76929 5.76923 7.06328 5.76923 8.65401C5.76923 10.2445 7.06322 11.5385 8.65373 11.5385Z" fill="#6C6C78"/>
<path d="M24.0871 0H0.912857C0.409508 0 0 0.517427 0 1.15343L0 23.8466C0 24.4826 0.409508 25 0.912857 25H24.0871C24.5905 25 25 24.4826 25 23.8466V1.15343C25 0.517427 24.5905 0 24.0871 0ZM23.5352 1.85088V14.4061L19.2308 10.5769C18.9304 10.1981 18.4419 10.1983 18.1417 10.5776L11.3234 16.8183L7.16133 13.462C7.0158 13.2779 6.8222 13.1764 6.61621 13.1764C6.41041 13.1764 6.217 13.2777 6.07147 13.4615L1.46484 17.3798V1.85088H23.5352Z" fill="#6C6C78"/>
</svg>
